<svg width="96" height="96" viewBox="0 0 480 480" fill="none" xmlns="http://www.w3.org/2000/svg">
<rect width="480" height="480" fill="#1E1E1E"/>
<rect width="480" height="480" fill="#2A1875"/>
<path d="M195.725 205.32V208.221C197.443 211.443 204.104 224.334 215.705 246.893C227.521 269.236 238.371 289.002 248.254 306.189C258.137 323.592 269.738 342.713 283.059 363.553C296.379 384.607 309.162 401.15 321.408 413.182C333.869 425.213 344.719 431.229 353.957 431.229C375.227 431.229 393.381 427.146 408.42 418.982C423.674 411.033 438.82 398.572 453.859 381.6C460.09 373.221 463.205 365.164 463.205 357.43C463.205 349.695 459.875 342.82 453.215 336.805C446.555 331.004 438.498 326.6 429.045 323.592V319.725C441.936 319.725 452.355 323.162 460.305 330.037C468.469 336.912 472.551 346.15 472.551 357.752C472.551 369.354 468.469 380.525 460.305 391.268C452.355 402.01 442.365 411.033 430.334 418.338C418.518 425.643 406.057 431.551 392.951 436.062C379.846 440.574 368.029 442.83 357.502 442.83C357.072 442.83 356.75 442.83 356.535 442.83C346.223 442.83 334.406 436.814 321.086 424.783C307.766 412.752 294.445 396.961 281.125 377.41C267.805 357.859 255.236 338.416 243.42 319.08C231.818 299.744 220.539 280.516 209.582 261.395C198.625 242.273 190.998 229.705 186.701 223.689C184.768 224.334 183.801 225.408 183.801 226.912C170.051 258.279 158.879 280.193 150.285 292.654C129.875 321.658 103.449 336.268 71.0078 336.482H52.6387C39.748 333.045 30.4023 325.203 24.6016 312.957C18.8008 300.926 15.9004 287.498 15.9004 272.674C15.9004 256.131 18.2637 244.314 22.9902 237.225C25.1387 234.002 27.8242 232.391 31.0469 232.391C37.4922 232.391 40.7148 234.109 40.7148 237.547C38.1367 239.695 35.5586 242.703 32.9805 246.57C27.6094 253.445 24.9238 262.254 24.9238 272.996C24.9238 309.305 40.7148 327.459 72.2969 327.459C90.3438 327.459 107.316 321.443 123.215 309.412C139.328 297.596 151.789 282.771 160.598 264.939C169.406 247.107 173.811 229.383 173.811 211.766L140.939 214.666C130.197 214.666 120.852 212.195 112.902 207.254C105.168 202.312 101.301 194.578 101.301 184.051C101.301 179.754 103.664 176.316 108.391 173.738C114.836 170.301 123.322 168.582 133.85 168.582C144.377 168.582 153.078 170.193 159.953 173.416C166.828 176.424 173.703 182.117 180.578 190.496L183.801 184.051C185.09 182.117 187.453 171.912 190.891 153.436C194.328 134.744 195.939 124.969 195.725 124.109C195.725 123.035 195.617 121.854 195.402 120.564C195.188 119.061 195.08 118.201 195.08 117.986C190.139 118.201 179.611 119.275 163.498 121.209C147.6 123.143 136.32 124.109 129.66 124.109C123.215 124.109 119.992 123.465 119.992 122.176C119.992 120.242 125.041 116.805 135.139 111.863L159.631 112.508C175.529 112.508 187.561 109.93 195.725 104.773C200.881 101.766 205.5 92.4199 209.582 76.7363C210.871 71.3652 213.127 66.5312 216.35 62.2344C219.572 57.9375 223.762 55.7891 228.918 55.7891C231.066 55.7891 232.678 56.3262 233.752 57.4004C235.041 58.4746 235.686 59.6562 235.686 60.9453C235.9 62.0195 236.008 63.3086 236.008 64.8125V67.7129C236.008 78.4551 227.736 90.8086 211.193 104.773L192.824 190.496V192.43C205.715 192.43 218.82 189.529 232.141 183.729C245.461 177.928 257.922 170.193 269.523 160.525C290.148 143.553 309.27 123.035 326.887 98.9727H333.01V104.773C333.01 106.492 323.879 118.738 305.617 141.512C282.414 169.656 245.783 190.926 195.725 205.32ZM133.205 180.828C119.885 179.754 113.225 181.365 113.225 185.662C113.225 192.322 116.018 197.371 121.604 200.809C127.189 204.031 133.527 205.643 140.617 205.643L150.285 205.965C161.242 205.965 167.258 203.709 168.332 199.197C163.391 186.951 151.682 180.828 133.205 180.828ZM226.018 68.3574C222.15 70.5059 220.217 75.125 220.217 82.2148V83.1816C224.299 79.3145 226.34 75.9844 226.34 73.1914C226.34 70.1836 226.232 68.5723 226.018 68.3574Z" fill="#008000"/>
<path d="M295.131 269.133L288.686 270.744C287.611 271.818 284.568 272.714 279.555 273.43C274.542 274.146 269.708 274.146 265.053 273.43C260.398 272.714 258.249 270.923 258.607 268.059C257.891 257.674 264.516 253.02 278.48 254.094C293.161 255.168 301.755 250.513 304.262 240.129L329.506 143.986L339.711 133.781C343.292 134.855 345.082 138.078 345.082 143.449L344.545 148.82L319.301 250.334V253.02C322.165 254.094 326.462 254.631 332.191 254.631C337.921 254.631 348.126 252.661 362.807 248.723C377.488 244.426 385.902 242.277 388.051 242.277C388.051 261.971 374.802 271.818 348.305 271.818C340.069 271.818 330.759 270.923 320.375 269.133C312.497 287.036 308.559 303.508 308.559 318.547C308.559 333.228 312.497 346.835 320.375 359.367C328.253 371.542 340.427 377.629 356.898 377.629C373.728 375.122 386.618 371.184 395.57 365.812C404.88 360.083 411.684 356.145 415.98 353.996C420.277 351.49 424.574 350.236 428.871 350.236C433.168 350.236 437.823 350.773 442.836 351.848C432.81 369.751 403.806 381.568 355.824 387.297C354.75 387.297 353.855 387.297 353.139 387.297C328.432 387.297 311.781 378.166 303.188 359.904C296.742 346.656 293.52 331.438 293.52 314.25C293.52 296.704 294.057 281.665 295.131 269.133Z" fill="#990D0D"/>
</svg>
